Link : http://www.imdb.com/title/tt1440728/
Format : AVI
Format/Info : Audio Video Interleave
File size : 701 MiB
Duration : 1h 33mn
Overall bit rate : 1 043 Kbps
Writing application : VirtualDubMod 1.5.10.2 (build 2540/release)
Writing library : VirtualDubMod build 2540/release

Video
Format : MPEG-4 Visual
Format profile : Streaming Video@L1
Format settings, BVOP : Yes
Format settings, QPel : No
Format settings, GMC : No warppoints
Format settings, Matrix : Default (H.263)
Muxing mode : Packed bitstream
Codec ID : XVID
Codec ID/Hint : XviD
Duration : 1h 33mn
Bit rate : 906 Kbps
Width : 672 pixels
Height : 272 pixels
Display aspect ratio : 2.471
Frame rate : 25.000 fps
Resolution : 24 bits
Colorimetry : 4:2:0
Scan type : Progressive
Bits/(Pixel*Frame) : 0.198
Stream size : 609 MiB (87%)
Writing library : XviD 1.2.1 (UTC 2008-12-04)

Audio : RUSSIAN
Format : MPEG Audio
Format version : Version 1
Format profile : Layer 3
Codec ID : 55
Codec ID/Hint : MP3
Duration : 1h 33mn
Bit rate mode : Constant
Bit rate : 128 Kbps
Channel(s) : 2 channels
Sampling rate : 48.0 KHz
Resolution : 16 bits
Stream size : 86.0 MiB (12%)
Alignment : Aligned on interleaves
Interleave, duration : 40 ms (1.00 video frame)
Interleave, preload duration : 504 ms








================================== 
http://thepiratebay.org/user/hiest
==================================








Screens:
 
http://www.starshare.ro/bitbucket/The.American.2010.CAM.XviD.avi_thumbs_%5B2010.09.03_15.57.15%5D.jpg